<svg
  version="1.1"
  id="Layer_1"
  xmlns="http://www.w3.org/2000/svg"
  xmlns:xlink="http://www.w3.org/1999/xlink"
  x="0px"
  y="0px"
  width="100%"
  viewBox="0 0 512 512"
  enable-background="new 0 0 512 512"
  xml:space="preserve"
>
  <path
    fill="#E9901B"
    opacity="1.000000"
    stroke="none"
    d="
M1.000001,268.000000
	C1.000000,260.979065 1.000000,253.958099 1.282400,246.772812
	C6.432323,240.505341 11.245717,234.358093 16.178202,228.307922
	C27.781338,214.075562 41.284801,201.726654 56.172302,191.173630
	C66.180779,184.079147 70.469238,175.533340 69.003349,163.616882
	C68.164970,156.801483 67.627312,149.949066 66.968948,142.637741
	C66.975204,129.401382 66.966766,116.640617 66.975815,103.427452
	C66.991264,100.810959 66.871849,98.639534 67.006538,96.483971
	C67.788857,83.964203 72.923592,73.793419 85.184898,69.644432
	C92.601784,67.134705 100.849068,66.295486 108.747635,66.163376
	C123.144234,65.922569 137.558960,66.765694 151.903809,67.518684
	C150.491150,72.327766 148.812103,76.705032 147.851105,81.234634
	C144.761688,95.796471 141.937378,110.414551 138.844681,125.298500
	C132.984070,131.648865 126.946770,137.427689 121.650887,143.820679
	C87.934715,184.521667 74.807655,231.429428 82.394173,283.443298
	C88.782524,327.242310 109.481758,363.865234 143.719498,392.242859
	C182.983475,424.786530 228.120544,438.026855 278.854858,432.114349
	C309.646423,428.525940 337.265503,417.104675 362.200104,398.888611
	C365.804565,396.255341 369.400726,393.610718 373.287354,391.229553
	C378.983368,391.324310 384.408813,391.368622 389.798645,390.952148
	C399.491913,390.203217 409.171295,389.249695 418.842590,388.247955
	C428.515320,387.246033 438.171021,386.080353 447.909363,385.450562
	C447.326263,398.915192 447.259216,411.981659 445.818359,424.894836
	C444.712769,434.803375 434.593933,444.860229 424.580872,445.847839
	C411.143707,447.173187 397.588104,447.933899 384.092072,447.828003
	C372.976807,447.740784 361.880768,445.956390 350.763977,445.078735
	C341.662445,444.360199 332.599152,444.620789 326.642181,452.985413
	C315.700226,468.349823 303.093201,482.233704 289.313599,495.002380
	C282.889221,500.955444 275.432526,505.791992 268.493042,511.197906
	C268.099518,511.504425 268.154022,512.386047 268.000000,513.000000
	C260.979065,513.000000 253.958099,513.000000 246.770538,512.716064
	C244.867615,511.258606 243.071930,510.163452 241.404053,508.899628
	C222.113831,494.283081 205.127670,477.281067 191.099960,457.622284
	C183.924744,447.566803 175.161758,443.526550 163.272232,445.034332
	C154.830414,446.104980 146.381271,447.716339 137.914749,447.858765
	C123.831657,448.095673 109.722275,447.566772 95.642502,446.942200
	C85.039085,446.471893 76.538521,441.703552 71.008232,432.454407
	C66.896408,425.577606 66.866928,417.826019 66.975098,409.639465
	C66.975456,396.404297 66.964737,383.645233 66.973167,370.431122
	C67.639969,363.643677 68.422356,357.321533 68.903015,350.976532
	C69.587975,341.934662 69.513062,332.862183 61.220329,326.845367
	C46.682137,316.297180 33.164127,304.586090 21.045416,291.385406
	C14.460924,284.213043 8.888261,276.113373 2.799560,268.479553
	C2.488399,268.089447 1.612801,268.149506 1.000001,268.000000
z"
  />
  <path
    fill="#EEA849"
    opacity="1.000000"
    stroke="none"
    d="
M139.010803,125.010941
	C141.937378,110.414551 144.761688,95.796471 147.851105,81.234634
	C148.812103,76.705032 150.491150,72.327766 152.324158,67.462189
	C155.994614,67.596138 159.165482,68.289490 162.373367,68.674675
	C171.834991,69.810768 181.185623,69.645210 187.395264,60.981045
	C198.386505,45.645229 210.960419,31.728514 224.740906,18.952511
	C231.150925,13.009729 238.608276,8.199090 245.540665,2.810663
	C245.928558,2.509168 245.857468,1.617161 246.000000,1.000000
	C253.020950,1.000000 260.041901,1.000000 267.223328,1.281101
	C273.488586,6.435794 279.643860,11.247717 285.688080,16.195345
	C299.920441,27.845594 312.132324,41.461639 322.918854,56.251179
	C329.213898,64.882408 336.363647,70.392433 347.554443,69.023407
	C356.654602,67.910149 365.781189,66.165916 374.893372,66.182167
	C391.572021,66.211914 408.300720,66.749268 424.906525,68.223671
	C434.758331,69.098389 444.853210,79.362663 445.833588,89.418755
	C447.161133,103.035347 447.913635,116.768776 447.816284,130.444275
	C447.738281,141.398514 445.919312,152.332886 445.071930,163.291443
	C444.384338,172.183167 444.501282,181.114578 452.647339,187.043930
	C467.613678,197.937668 481.473267,210.081573 493.988068,223.666443
	C500.154572,230.360199 505.368408,237.929703 511.069885,245.057678
	C511.474091,245.563080 512.345703,245.694626 513.000000,246.000000
	C513.000000,253.020950 513.000000,260.041901 512.720093,267.221375
	C507.582642,273.469482 502.808655,279.628082 497.850861,285.634979
	C486.078400,299.898590 472.392761,312.149902 457.534515,323.074493
	C443.980591,333.040009 444.472229,338.275970 445.177521,351.233765
	C445.790710,362.499481 446.928345,373.736664 447.834229,384.986450
	C438.171021,386.080353 428.515320,387.246033 418.842590,388.247955
	C409.171295,389.249695 399.491913,390.203217 389.798645,390.952148
	C384.408813,391.368622 378.983368,391.324310 373.436584,390.934875
	C378.428528,385.191132 384.034790,380.382477 388.573853,374.718567
	C395.158997,366.501587 400.973236,357.666901 407.355133,348.858246
	C429.582581,312.708984 437.409424,273.613312 431.591980,232.231720
	C425.401764,188.198517 404.947418,151.428070 370.992676,122.444946
	C342.509155,98.131966 309.393860,84.381165 272.241333,81.237839
	C240.157013,78.523308 209.236908,83.988472 179.760223,98.285110
	C178.670929,98.713737 177.857941,98.966995 177.179199,99.420975
	C164.446899,107.936745 151.730515,116.476334 139.010803,125.010941
z"
  />
  <path
    fill="#EFD176"
    opacity="1.000000"
    stroke="none"
    d="
M138.844681,125.298500
	C151.730515,116.476334 164.446899,107.936745 177.179199,99.420975
	C177.857941,98.966995 178.670929,98.713737 179.722839,98.639099
	C177.300491,104.940033 174.310318,110.864624 171.902267,117.017052
	C164.237503,136.600113 163.319702,157.117294 164.117706,177.800980
	C164.177292,179.345062 165.629883,180.835434 166.155487,182.569763
	C153.511780,187.654144 147.528473,196.857666 147.753052,210.106583
	C140.920151,212.261581 134.035248,213.497223 128.141129,216.609344
	C108.097389,227.192505 107.248230,251.571045 125.710175,264.585907
	C142.646133,276.525055 173.101242,275.026917 186.926620,255.244171
	C195.004547,267.597443 202.262711,280.172394 211.158081,291.456726
	C229.145126,314.274384 252.561234,330.188629 279.307892,341.213593
	C297.896881,348.875946 317.333374,352.552979 337.385040,354.241608
	C354.272980,355.663788 370.843964,354.221313 387.470398,352.099915
	C394.039825,351.261688 400.568848,350.106506 407.116272,349.095642
	C400.973236,357.666901 395.158997,366.501587 388.573853,374.718567
	C384.034790,380.382477 378.428528,385.191132 373.149963,390.676697
	C369.400726,393.610718 365.804565,396.255341 362.200104,398.888611
	C337.265503,417.104675 309.646423,428.525940 278.854858,432.114349
	C228.120544,438.026855 182.983475,424.786530 143.719498,392.242859
	C109.481758,363.865234 88.782524,327.242310 82.394173,283.443298
	C74.807655,231.429428 87.934715,184.521667 121.650887,143.820679
	C126.946770,137.427689 132.984070,131.648865 138.844681,125.298500
z"
  />
  <path
    fill="#EB982C"
    opacity="1.000000"
    stroke="none"
    d="
M66.975098,409.639465
	C66.644829,409.428986 66.047089,408.742065 66.047806,408.055817
	C66.060661,395.825073 66.146133,383.594421 66.584999,371.124969
	C66.964737,383.645233 66.975456,396.404297 66.975098,409.639465
z"
  />
  <path
    fill="#EB982C"
    opacity="1.000000"
    stroke="none"
    d="
M66.968948,142.637741
	C66.636795,142.427582 66.042191,141.741486 66.043045,141.056137
	C66.058395,128.823013 66.145958,116.589958 66.588165,104.118362
	C66.966766,116.640617 66.975204,129.401382 66.968948,142.637741
z"
  />
  <path
    fill="#F7EF87"
    opacity="1.000000"
    stroke="none"
    d="
M166.434891,182.350769
	C165.629883,180.835434 164.177292,179.345062 164.117706,177.800980
	C163.319702,157.117294 164.237503,136.600113 171.902267,117.017052
	C174.310318,110.864624 177.300491,104.940033 180.061615,98.557167
	C209.236908,83.988472 240.157013,78.523308 272.241333,81.237839
	C309.393860,84.381165 342.509155,98.131966 370.992676,122.444946
	C404.947418,151.428070 425.401764,188.198517 431.591980,232.231720
	C437.409424,273.613312 429.582581,312.708984 407.355133,348.858246
	C400.568848,350.106506 394.039825,351.261688 387.470398,352.099915
	C370.843964,354.221313 354.272980,355.663788 337.385040,354.241608
	C317.333374,352.552979 297.896881,348.875946 279.307892,341.213593
	C252.561234,330.188629 229.145126,314.274384 211.158081,291.456726
	C202.262711,280.172394 195.004547,267.597443 187.017670,254.887054
	C192.894272,240.589279 190.688126,230.010406 179.580093,220.116516
	C176.635910,217.494156 173.099609,215.536560 169.872040,212.847382
	C168.852066,208.150238 167.795242,203.879425 166.962906,199.313873
	C169.151016,198.227509 171.059937,196.967529 173.088318,196.730652
	C179.602859,195.969940 183.788696,199.964813 185.077789,207.723373
	C185.849960,212.370758 189.022369,215.230515 193.091263,214.947083
	C197.199203,214.660950 200.033218,211.374908 200.006134,206.735489
	C199.996536,205.090683 199.802567,203.410797 199.425339,201.809937
	C195.933838,186.991943 183.617386,179.748764 166.434891,182.350769
M351.196869,211.865158
	C346.226807,214.058884 340.733429,215.510284 336.380463,218.579315
	C320.486847,229.784973 319.499542,249.172928 333.712311,262.128448
	C347.650818,274.833893 375.246887,275.562683 389.806824,263.609802
	C406.421204,249.970398 405.562103,228.428238 387.253571,217.476868
	C380.900299,213.676620 373.006317,212.452148 365.868713,209.160583
	C365.567535,206.199417 365.667938,203.128799 364.895752,200.296005
	C361.512970,187.885971 349.259979,179.948685 336.616150,181.716385
	C323.830658,183.503876 314.044037,194.156036 313.963196,206.372849
	C313.926514,211.917862 317.760040,215.803070 322.547943,214.843750
	C326.971588,213.957397 328.583466,210.822540 329.067383,206.550583
	C329.751556,200.510635 333.982269,196.735611 339.639709,196.595047
	C345.465973,196.450287 349.905121,200.342712 350.927612,206.445862
	C351.228058,208.239120 351.634247,210.014679 351.196869,211.865158
M235.835800,221.931366
	C228.923157,224.894180 227.827972,230.101700 232.988403,235.470612
	C245.872055,248.874664 267.832062,248.970825 280.819733,235.680054
	C284.609436,231.801926 285.144806,227.452103 282.230957,224.214264
	C279.169708,220.812637 274.657806,221.067520 270.439667,224.880371
	C261.977539,232.529434 252.115280,232.450943 243.554184,225.028152
	C241.713867,223.432541 238.972107,222.876633 235.835800,221.931366
z"
  />
  <path
    fill="#F7EF87"
    opacity="1.000000"
    stroke="none"
    d="
M346.932373,466.000488
	C349.607605,467.526184 352.884705,468.545624 353.948212,470.672119
	C357.158875,477.092102 359.643768,483.892273 362.151825,490.640747
	C364.058868,495.771942 362.057251,500.282959 357.619232,501.770905
	C353.122314,503.278595 348.891327,500.767181 346.980621,495.742065
	C344.594360,489.466156 341.913605,483.302094 339.535095,477.023407
	C337.692169,472.158508 339.246674,466.729828 346.932373,466.000488
z"
  />
  <path
    fill="#F7EF87"
    opacity="1.000000"
    stroke="none"
    d="
M493.115051,362.997681
	C485.529388,360.223083 478.340881,357.503723 471.203156,354.656982
	C466.969971,352.968628 464.619049,347.731262 466.103058,343.696991
	C467.333313,340.352509 472.546936,337.811951 476.443726,339.261932
	C483.634094,341.937439 490.686157,344.991089 497.756012,347.981323
	C501.789917,349.687469 502.696869,353.333496 501.844971,356.972656
	C500.912537,360.955811 497.963440,363.275726 493.115051,362.997681
z"
  />
  <path
    fill="#F7EF87"
    opacity="1.000000"
    stroke="none"
    d="
M43.226238,159.682358
	C47.528786,162.516006 49.442924,167.363968 47.780739,170.745026
	C46.104870,174.153931 41.248383,176.133682 37.130650,174.572876
	C30.103382,171.909271 23.152151,169.024811 16.276192,165.990189
	C12.430359,164.292877 10.914474,159.921768 12.389179,156.091003
	C13.976481,151.967758 18.392124,149.792313 22.864773,151.430298
	C29.623981,153.905670 36.252159,156.738815 43.226238,159.682358
z"
  />
  <path
    fill="#F7EF87"
    opacity="1.000000"
    stroke="none"
    d="
M161.871765,46.360840
	C158.070435,37.844990 154.226410,29.738436 151.148285,21.350807
	C149.745560,17.528513 152.843002,13.280314 156.584900,12.158844
	C160.471329,10.994053 164.576569,12.806407 166.246368,16.733366
	C168.940338,23.068962 171.440277,29.487120 174.017914,35.872128
	C175.593155,39.774166 175.916687,43.346397 172.155258,46.431442
	C168.756134,49.219330 165.509277,48.093525 161.871765,46.360840
z"
  />
  <path
    fill="#F7EF87"
    opacity="1.000000"
    stroke="none"
    d="
M16.101639,347.983948
	C23.302000,345.143433 30.052261,342.190979 36.939163,339.601990
	C41.803341,337.773346 46.750572,339.942017 47.966980,343.974854
	C49.333042,348.503845 46.765896,353.142426 42.084961,354.993256
	C36.423542,357.231812 30.793955,359.559265 25.215935,361.997711
	C20.698547,363.972473 15.506985,363.117401 13.296747,359.666626
	C11.191848,356.380280 11.064941,351.192627 16.101639,347.983948
z"
  />
  <path
    fill="#F7EF87"
    opacity="1.000000"
    stroke="none"
    d="
M161.873108,467.637756
	C165.511841,465.891144 168.762543,464.784546 172.155273,467.571045
	C175.910095,470.654907 175.596924,474.230042 174.017899,478.135834
	C171.437439,484.518707 168.937881,490.936096 166.242783,497.270203
	C164.573212,501.194122 160.462097,503.006531 156.579636,501.839508
	C152.836929,500.714447 149.744598,496.469025 151.148254,492.645294
	C154.226852,484.258881 158.070969,476.153473 161.873108,467.637756
z"
  />
  <path
    fill="#F7EF87"
    opacity="1.000000"
    stroke="none"
    d="
M497.740906,151.930664
	C504.521851,157.706055 503.189575,164.086792 495.164520,167.056427
	C489.154846,169.280258 483.317291,171.969971 477.304352,174.184052
	C472.062683,176.114151 467.682404,174.454391 466.115570,170.351791
	C464.454468,166.002335 467.249664,160.861313 472.059479,158.983414
	C477.580078,156.828033 482.918976,154.157761 488.536133,152.320724
	C491.234894,151.438141 494.391998,151.957214 497.740906,151.930664
z"
  />
  <path
    fill="#F7EF87"
    opacity="1.000000"
    stroke="none"
    d="
M346.283539,20.301582
	C347.557007,15.793235 349.381592,12.355066 354.326508,12.007499
	C358.187408,11.736125 361.247375,13.269408 362.339722,16.987118
	C362.983704,19.178886 363.048004,21.945284 362.291931,24.068205
	C360.034851,30.405533 357.258972,36.558998 354.656921,42.772232
	C352.881500,47.011585 347.761200,49.386154 343.701874,47.898144
	C340.036194,46.554424 337.860291,41.513973 339.452240,37.096401
	C341.456787,31.533979 343.832031,26.105167 346.283539,20.301582
z"
  />
  <path
    fill="#EDA1AB"
    opacity="1.000000"
    stroke="none"
    d="
M169.835190,213.273712
	C173.099609,215.536560 176.635910,217.494156 179.580093,220.116516
	C190.688126,230.010406 192.894272,240.589279 186.938690,254.524811
	C173.101242,275.026917 142.646133,276.525055 125.710175,264.585907
	C107.248230,251.571045 108.097389,227.192505 128.141129,216.609344
	C134.035248,213.497223 140.920151,212.261581 147.992218,210.334213
	C152.856918,216.089310 156.081268,216.408813 162.345703,211.865616
	C165.111481,212.364624 167.473343,212.819168 169.835190,213.273712
z"
  />
  <path
    fill="#515961"
    opacity="1.000000"
    stroke="none"
    d="
M161.941757,211.821152
	C156.081268,216.408813 152.856918,216.089310 148.394272,210.274841
	C147.528473,196.857666 153.511780,187.654144 166.155487,182.569763
	C183.617386,179.748764 195.933838,186.991943 199.425339,201.809937
	C199.802567,203.410797 199.996536,205.090683 200.006134,206.735489
	C200.033218,211.374908 197.199203,214.660950 193.091263,214.947083
	C189.022369,215.230515 185.849960,212.370758 185.077789,207.723373
	C183.788696,199.964813 179.602859,195.969940 173.088318,196.730652
	C171.059937,196.967529 169.151016,198.227509 166.662064,199.512177
	C164.738388,203.943878 163.340073,207.882507 161.941757,211.821152
z"
  />
  <path
    fill="#EDA1AB"
    opacity="1.000000"
    stroke="none"
    d="
M365.816040,210.051208
	C373.006317,212.452148 380.900299,213.676620 387.253571,217.476868
	C405.562103,228.428238 406.421204,249.970398 389.806824,263.609802
	C375.246887,275.562683 347.650818,274.833893 333.712311,262.128448
	C319.499542,249.172928 320.486847,229.784973 336.380463,218.579315
	C340.733429,215.510284 346.226807,214.058884 351.910156,212.026154
	C358.237976,216.458679 361.440094,215.940247 365.816040,210.051208
z"
  />
  <path
    fill="#515961"
    opacity="1.000000"
    stroke="none"
    d="
M365.842377,209.605896
	C361.440094,215.940247 358.237976,216.458679 352.307709,211.992737
	C351.634247,210.014679 351.228058,208.239120 350.927612,206.445862
	C349.905121,200.342712 345.465973,196.450287 339.639709,196.595047
	C333.982269,196.735611 329.751556,200.510635 329.067383,206.550583
	C328.583466,210.822540 326.971588,213.957397 322.547943,214.843750
	C317.760040,215.803070 313.926514,211.917862 313.963196,206.372849
	C314.044037,194.156036 323.830658,183.503876 336.616150,181.716385
	C349.259979,179.948685 361.512970,187.885971 364.895752,200.296005
	C365.667938,203.128799 365.567535,206.199417 365.842377,209.605896
z"
  />
  <path
    fill="#515961"
    opacity="1.000000"
    stroke="none"
    d="
M236.240692,221.886566
	C238.972107,222.876633 241.713867,223.432541 243.554184,225.028152
	C252.115280,232.450943 261.977539,232.529434 270.439667,224.880371
	C274.657806,221.067520 279.169708,220.812637 282.230957,224.214264
	C285.144806,227.452103 284.609436,231.801926 280.819733,235.680054
	C267.832062,248.970825 245.872055,248.874664 232.988403,235.470612
	C227.827972,230.101700 228.923157,224.894180 236.240692,221.886566
z"
  />
  <path
    fill="#EBCE77"
    opacity="1.000000"
    stroke="none"
    d="
M162.345703,211.865616
	C163.340073,207.882507 164.738388,203.943878 166.437561,199.806915
	C167.795242,203.879425 168.852066,208.150238 169.872040,212.847382
	C167.473343,212.819168 165.111481,212.364624 162.345703,211.865616
z"
  />
</svg>